<svg xmlns="http://www.w3.org/2000/svg" width="512" height="512" viewBox="0 0 512 512" version="1.1"><path d="" stroke="none" fill="#080404" fill-rule="evenodd"/><path d="M 216.500 52.026 C 171.181 55.300, 100.014 65.832, 88.283 71 C 82.214 73.674, 74.462 81.360, 71.262 87.875 L 68.500 93.500 68.500 160.500 C 68.500 231.761, 68.719 235.991, 73.589 259 C 81.584 296.765, 98.260 331.866, 123.712 364.500 C 149.924 398.110, 188.187 429.920, 228 451.200 C 251.699 463.867, 258.911 464.067, 281.107 452.672 C 310.174 437.750, 339.372 416.378, 363.288 392.516 C 403.211 352.686, 428.905 306.463, 438.897 256.500 C 443.368 234.146, 443.500 231.402, 443.500 161 L 443.500 93.500 440.753 87.907 C 435.323 76.849, 427.342 71.077, 413.223 67.996 C 389.619 62.844, 347.941 56.771, 313.500 53.465 C 293.765 51.571, 234.889 50.697, 216.500 52.026 M 339.395 171.084 C 330.762 174.054, 324.131 179.377, 320.775 186.029 C 313.231 200.984, 318.124 217.469, 332.230 224.617 C 334.902 225.971, 343.256 228.466, 350.794 230.162 C 365.775 233.532, 370.715 235.551, 373.905 239.607 C 378.030 244.851, 375.305 252.273, 367.861 256.071 C 362.201 258.958, 351.164 259.051, 344.862 256.263 C 340.312 254.251, 335 248.950, 335 246.423 C 335 245.286, 332.965 245, 324.872 245 L 314.744 245 315.399 249.092 C 316.803 257.871, 323.459 266.199, 332.428 270.397 C 347.554 277.477, 370.277 276.379, 382.759 267.966 C 392.229 261.584, 395.898 254.353, 395.934 242 C 395.961 232.740, 393.921 227.800, 387.965 222.702 C 382.641 218.144, 376.875 215.948, 360.173 212.114 C 341.542 207.838, 338 205.531, 338 197.677 C 338 190.714, 346.118 185.021, 356.072 185.006 C 364.533 184.992, 373.033 190.299, 374.609 196.577 C 375.198 198.926, 375.504 199, 384.608 199 L 394 199 394 195.696 C 394 187.204, 384.636 175.960, 374.147 171.859 C 365.744 168.573, 347.852 168.174, 339.395 171.084 M 150.519 172.750 C 149.197 176.080, 116 272.082, 116 272.575 C 116 272.847, 120.582 272.942, 126.183 272.785 L 136.366 272.500 140.403 260.250 L 144.440 248 162.524 248 L 180.608 248 184.558 260.250 L 188.507 272.500 199.730 272.783 L 210.952 273.065 203.931 252.783 C 200.069 241.627, 192.097 218.662, 186.214 201.750 L 175.519 171 163.367 171 C 152.724 171, 151.128 171.217, 150.519 172.750 M 229 222 L 229 273 262.500 273 L 296 273 296 264 L 296 255 273 255 L 250 255 250 242 L 250 229 271.500 229 L 293 229 293 221 L 293 213 271.500 213 L 250 213 250 201 L 250 189 273 189 L 296 189 296 180 L 296 171 262.500 171 L 229 171 229 222 M 155.235 211.750 C 151.799 222.613, 148.991 231.838, 148.994 232.250 C 148.997 232.662, 155.075 233, 162.500 233 C 171.731 233, 176 232.649, 176 231.889 C 176 229.077, 163.501 192, 162.553 192 C 161.964 192, 158.670 200.887, 155.235 211.750" stroke="none" fill="#040404" fill-rule="evenodd"/></svg>